<svg xmlns="http://www.w3.org/2000/svg" viewBox="0 0 109 24"><defs><style>.cls-1{fill:#0da9ff;}.cls-2{fill:#f30;}</style></defs><title>logo</title><g id="Layer_3" data-name="Layer 3"><path class="cls-1" d="M4.62,19v2.14c0,.75-.52,1.12-1.57,1.12H2C1,22.3.43,21.93.43,21.18V11.76a3.88,3.88,0,0,1,1.84-3.2A7.48,7.48,0,0,1,6.73,7.23h4.19a7.43,7.43,0,0,1,4.44,1.33,3.88,3.88,0,0,1,1.84,3.2v3A3.87,3.87,0,0,1,15.36,18a7.43,7.43,0,0,1-4.44,1.32H6.73A8.77,8.77,0,0,1,4.62,19Zm2.11-2.75h4.19a2.47,2.47,0,0,0,1.46-.44A1.31,1.31,0,0,0,13,14.77v-3a1.29,1.29,0,0,0-.63-1.06,2.41,2.41,0,0,0-1.46-.44H6.73a2.46,2.46,0,0,0-1.49.44,1.28,1.28,0,0,0-.62,1.06v3.06a1.3,1.3,0,0,0,.63,1A2.51,2.51,0,0,0,6.73,16.29Z"/><path class="cls-1" d="M23.06,14.77A1.16,1.16,0,0,0,23.85,16a3.81,3.81,0,0,0,1.32.3h.51c1.05,0,1.58.38,1.58,1.13v.76c0,.75-.53,1.12-1.58,1.12h-.51A7.47,7.47,0,0,1,20.71,18a3.87,3.87,0,0,1-1.84-3.21V5.36c0-.76.52-1.14,1.58-1.14h1c1.05,0,1.57.38,1.57,1.14V7.23h2.62c1.05,0,1.58.38,1.58,1.14v.75c0,.76-.53,1.14-1.58,1.14H23.06Z"/><path class="cls-1" d="M29,11.76a3.88,3.88,0,0,1,1.84-3.2,7.48,7.48,0,0,1,4.46-1.33h8.91q1.56,0,1.56,1.14v.75q0,1.14-1.56,1.14H35.26a2.46,2.46,0,0,0-1.49.44,1.28,1.28,0,0,0-.62,1.06v3a1.29,1.29,0,0,0,.62,1.08,2.52,2.52,0,0,0,1.49.44h8.91c1,0,1.56.38,1.56,1.12v.76c0,.75-.52,1.13-1.56,1.13H35.26A7.47,7.47,0,0,1,30.8,18,3.87,3.87,0,0,1,29,14.77Z"/><path class="cls-2" d="M48.38,5.42h1.09c1.09,0,1.64.35,1.64,1v.7c0,.69-.55,1-1.64,1H48.38c-1.1,0-1.65-.35-1.65-1v-.7Q46.73,5.42,48.38,5.42Zm0,4.19h1.09c1.09,0,1.64.34,1.64,1V18.3c0,.7-.55,1.05-1.64,1.05H48.38q-1.65,0-1.65-1.05V10.64C46.73,10,47.28,9.61,48.38,9.61Z"/><path class="cls-2" d="M61.41,8.21h2.18a8.51,8.51,0,0,1,4.64,1.22,3.51,3.51,0,0,1,1.93,3V18.3c0,.7-.54,1.05-1.63,1.05h-1.1q-1.65,0-1.65-1.05V12.39a1.17,1.17,0,0,0-.65-1A2.79,2.79,0,0,0,63.59,11H59.22a2.79,2.79,0,0,0-1.56.41,1.17,1.17,0,0,0-.65,1V18.3c0,.7-.54,1.05-1.63,1.05h-1.1q-1.65,0-1.65-1.05V12.39a3.53,3.53,0,0,1,1.93-3,8.58,8.58,0,0,1,4.66-1.22Z"/><path class="cls-2" d="M80.67,8.21h2.19A8.51,8.51,0,0,1,87.5,9.43a3.51,3.51,0,0,1,1.93,3V18.3c0,.7-.55,1.05-1.63,1.05H86.7q-1.65,0-1.65-1.05V12.39a1.17,1.17,0,0,0-.65-1A2.79,2.79,0,0,0,82.86,11H78.48a2.78,2.78,0,0,0-1.55.41,1.17,1.17,0,0,0-.65,1V18.3c0,.7-.54,1.05-1.63,1.05h-1.1q-1.65,0-1.65-1.05V12.39a3.51,3.51,0,0,1,1.93-3,8.55,8.55,0,0,1,4.65-1.22Z"/><path class="cls-2" d="M97.75,8.21h4.38a8.51,8.51,0,0,1,4.64,1.22,3.51,3.51,0,0,1,1.93,3v2.78a3.51,3.51,0,0,1-1.93,3,8.51,8.51,0,0,1-4.64,1.22H97.75a8.55,8.55,0,0,1-4.65-1.22,3.51,3.51,0,0,1-1.93-3V12.39a3.51,3.51,0,0,1,1.93-3A8.55,8.55,0,0,1,97.75,8.21Zm0,2.79a2.78,2.78,0,0,0-1.55.41,1.17,1.17,0,0,0-.65,1v2.78a1.2,1.2,0,0,0,.65,1,2.87,2.87,0,0,0,1.55.41h4.38a2.88,2.88,0,0,0,1.54-.41,1.2,1.2,0,0,0,.65-1V12.39a1.17,1.17,0,0,0-.65-1,2.79,2.79,0,0,0-1.54-.41Z"/></g></svg>