<svg xmlns="http://www.w3.org/2000/svg" viewBox="0 0 109 24"><defs><style>.cls-1{fill:#0da9ff;}.cls-2{fill:#f30;}</style></defs><title>logo</title><g id="Layer_3" data-name="Layer 3"><path class="cls-1" d="M6.11,18.65v2.4c0,.83-.58,1.25-1.75,1.25H3.19c-1.17,0-1.76-.42-1.76-1.25V10.52A4.34,4.34,0,0,1,3.49,6.94a8.27,8.27,0,0,1,5-1.48h4.68a8.28,8.28,0,0,1,5,1.48,4.36,4.36,0,0,1,2.06,3.58v3.36a4.35,4.35,0,0,1-2.06,3.59,8.35,8.35,0,0,1-5,1.48H8.47A9.37,9.37,0,0,1,6.11,18.65Zm2.36-3.07h4.68a2.68,2.68,0,0,0,1.64-.5,1.45,1.45,0,0,0,.71-1.2V10.52a1.44,1.44,0,0,0-.71-1.19,2.75,2.75,0,0,0-1.64-.5H8.47a2.82,2.82,0,0,0-1.67.5,1.44,1.44,0,0,0-.69,1.19v3.41a1.44,1.44,0,0,0,.71,1.16A2.75,2.75,0,0,0,8.47,15.58Z"/><path class="cls-1" d="M26.73,13.88a1.32,1.32,0,0,0,.88,1.37,4.4,4.4,0,0,0,1.48.33h.57c1.18,0,1.77.42,1.77,1.27v.84q0,1.26-1.77,1.26h-.57a8.39,8.39,0,0,1-5-1.48A4.35,4.35,0,0,1,22,13.88V3.36c0-.85.59-1.27,1.77-1.27H25c1.16,0,1.75.42,1.75,1.27v2.1h2.93q1.77,0,1.77,1.26v.85q0,1.26-1.77,1.26H26.73Z"/><path class="cls-1" d="M33.32,10.52a4.35,4.35,0,0,1,2.07-3.58,8.27,8.27,0,0,1,5-1.48h10c1.16,0,1.75.42,1.75,1.26v.85c0,.84-.59,1.26-1.75,1.26h-10a2.8,2.8,0,0,0-1.67.5A1.44,1.44,0,0,0,38,10.52v3.36a1.45,1.45,0,0,0,.69,1.2,2.73,2.73,0,0,0,1.67.5h10c1.16,0,1.75.42,1.75,1.26v.84c0,.85-.59,1.27-1.75,1.27h-10a8.34,8.34,0,0,1-5-1.48,4.34,4.34,0,0,1-2.07-3.59Z"/><path class="cls-2" d="M55,9.15h1c.95,0,1.43.31,1.43.92v.61c0,.6-.48.9-1.43.9H55q-1.44,0-1.44-.9v-.61C53.53,9.46,54,9.15,55,9.15Zm0,3.66h1c.95,0,1.43.3,1.43.9V20.4c0,.61-.48.91-1.43.91H55c-1,0-1.44-.3-1.44-.91V13.71Q53.53,12.81,55,12.81Z"/><path class="cls-2" d="M66.34,11.58h1.91a7.33,7.33,0,0,1,4,1.08A3.06,3.06,0,0,1,74,15.23V20.4c0,.61-.48.91-1.43.91h-1c-1,0-1.44-.3-1.44-.91V15.23a1,1,0,0,0-.57-.85A2.46,2.46,0,0,0,68.25,14H64.43a2.49,2.49,0,0,0-1.36.36,1,1,0,0,0-.57.85V20.4c0,.61-.47.91-1.42.91h-1c-1,0-1.44-.3-1.44-.91V15.23a3.05,3.05,0,0,1,1.68-2.57,7.4,7.4,0,0,1,4.07-1.08Z"/><path class="cls-2" d="M83.16,11.58h1.92a7.35,7.35,0,0,1,4,1.08,3.05,3.05,0,0,1,1.68,2.57V20.4c0,.61-.48.91-1.43.91h-.95c-1,0-1.44-.3-1.44-.91V15.23a1,1,0,0,0-.57-.85A2.49,2.49,0,0,0,85.08,14H81.25a2.49,2.49,0,0,0-1.36.36,1,1,0,0,0-.56.85V20.4c0,.61-.48.91-1.43.91H77c-1,0-1.44-.3-1.44-.91V15.23a3.05,3.05,0,0,1,1.68-2.57,7.36,7.36,0,0,1,4.06-1.08Z"/><path class="cls-2" d="M98.08,11.58h3.82a7.33,7.33,0,0,1,4,1.08,3.05,3.05,0,0,1,1.68,2.57v2.43A3.08,3.08,0,0,1,106,20.25a7.41,7.41,0,0,1-4,1.06H98.08A7.45,7.45,0,0,1,94,20.25a3.08,3.08,0,0,1-1.68-2.59V15.23A3.05,3.05,0,0,1,94,12.66,7.38,7.38,0,0,1,98.08,11.58Zm0,2.44a2.49,2.49,0,0,0-1.36.36,1,1,0,0,0-.57.85v2.43a1,1,0,0,0,.57.87,2.48,2.48,0,0,0,1.36.35h3.82a2.46,2.46,0,0,0,1.34-.35,1,1,0,0,0,.57-.87V15.23a1,1,0,0,0-.57-.85A2.46,2.46,0,0,0,101.9,14Z"/><rect class="cls-1" x="53.53" y="5.75" width="54.08" height="1.94"/></g></svg>