<svg id="Layer_4" data-name="Layer 4" xmlns="http://www.w3.org/2000/svg" viewBox="0 0 240 190"><defs><style>.cls-1{fill:#e4e4e4;}.cls-2,.cls-4{fill:#fff;}.cls-2{opacity:0.5;isolation:isolate;}.cls-3{fill:#f40;}.cls-5{fill:#515251;}</style></defs><title>ptcinnofisacorecybersecuritysecurityitpeachtreecity</title><path class="cls-1" d="M180.57,155.6A85.1,85.1,0,0,1,120,180.69h0A85.67,85.67,0,0,1,59.42,34.44,85.67,85.67,0,1,1,180.57,155.6Z"/><path class="cls-2" d="M59.42,155.6A85.67,85.67,0,0,1,180.58,34.44Z"/><path class="cls-3" d="M45.15,125a76.26,76.26,0,0,1,10-74.7,21.4,21.4,0,0,1-4.47-4.11,21.72,21.72,0,0,1-2.8-4.5A87.66,87.66,0,0,0,35.79,130.9,32.43,32.43,0,0,1,45.15,125Z"/><path class="cls-3" d="M86.87,9.93a34.12,34.12,0,0,1,6.68,9.74,79.16,79.16,0,0,1,73.29,10.67,22.47,22.47,0,0,1,5.95-7.5s0,0,0,0c.54-.43,1.09-.83,1.65-1.21A91.42,91.42,0,0,0,86.87,9.93Z"/><path class="cls-3" d="M194.16,65.32a79.47,79.47,0,0,1-10.44,77.83,22,22,0,0,1,7.57,9,91.35,91.35,0,0,0,12.63-93A34,34,0,0,1,194.16,65.32Z"/><path class="cls-3" d="M146.43,170.36A79.52,79.52,0,0,1,120,175h0a79.26,79.26,0,0,1-46.84-15.26,22.25,22.25,0,0,1-6,7.5h0a19.25,19.25,0,0,1-1.58,1.15,91.44,91.44,0,0,0,87.51,11.76A33.93,33.93,0,0,1,146.43,170.36Z"/><path class="cls-3" d="M78.61,17.87a22.57,22.57,0,1,1-31.93,0,22.6,22.6,0,0,1,31.93,0Z"/><path class="cls-4" d="M70.45,41.65a11.06,11.06,0,1,0-15.63,0h0a11.05,11.05,0,0,0,15.63,0"/><path class="cls-3" d="M165.23,17.86a22.57,22.57,0,1,1,0,31.92,22.6,22.6,0,0,1,0-31.92Z"/><path class="cls-4" d="M189,26a11.06,11.06,0,1,0,0,15.63h0A11.05,11.05,0,0,0,189,26"/><path class="cls-3" d="M161.39,172.16a22.57,22.57,0,1,1,31.92,0,22.6,22.6,0,0,1-31.92,0Z"/><path class="cls-4" d="M169.54,148.39a11.06,11.06,0,1,0,15.64,0h0a11.06,11.06,0,0,0-15.64,0"/><path class="cls-3" d="M74.76,172.17a22.57,22.57,0,1,1,0-31.92,22.6,22.6,0,0,1,0,31.92Z"/><path class="cls-4" d="M51,164a11.06,11.06,0,1,0,0-15.64h0A11.08,11.08,0,0,0,51,164"/><polygon class="cls-4" points="108.52 83.54 120 117.97 131.47 83.54 108.52 83.54"/><g id="Completed_Icons" data-name="Completed Icons"><polygon class="cls-4" points="163.01 67.1 132.54 39.74 132.54 43.43 85.77 43.43 85.77 138.72 158.36 138.72 158.36 67.1 163.01 67.1"/><path class="cls-5" d="M129.63,69.24V46.34H87.91v89.47h67V69.24Zm-28.91-5.82H119v2.71H100.72Zm0,13h36.09v2.72H100.72Zm0,10.28h36.09v2.72H100.72Zm0,10.48h25.81V99.9H100.72Zm10.48,13H100.72v-2.72H111.2ZM130,126.1l-13-12.22,4.27-4.47,8.34,7.76L144,100.1l4.65,3.88Z"/><polygon class="cls-5" points="134.87 46.34 134.87 64.19 154.86 64.19 134.87 46.34"/></g></svg>