<svg id="Layer_3" data-name="Layer 3" xmlns="http://www.w3.org/2000/svg" viewBox="0 0 240 190"><defs><style>.cls-1{fill:#e4e4e4;}.cls-2,.cls-4{fill:#fff;}.cls-2{opacity:0.5;isolation:isolate;}.cls-3{fill:#f40;}.cls-5{fill:#54565a;}</style></defs><title>ptcinnofisacoreauditsecurityitpeachtreecity</title><path class="cls-1" d="M180.57,155.6A85.1,85.1,0,0,1,120,180.69h0A85.67,85.67,0,0,1,59.42,34.44,85.67,85.67,0,1,1,180.57,155.6Z"/><path class="cls-2" d="M59.42,155.6A85.67,85.67,0,0,1,180.58,34.44Z"/><path class="cls-3" d="M45.15,125a76.26,76.26,0,0,1,10-74.7,21.4,21.4,0,0,1-4.47-4.11,21.72,21.72,0,0,1-2.8-4.5A87.66,87.66,0,0,0,35.79,130.9,32.43,32.43,0,0,1,45.15,125Z"/><path class="cls-3" d="M86.87,9.93a34.12,34.12,0,0,1,6.68,9.74,79.16,79.16,0,0,1,73.29,10.67,22.47,22.47,0,0,1,5.95-7.5s0,0,0,0c.54-.43,1.09-.83,1.65-1.21A91.42,91.42,0,0,0,86.87,9.93Z"/><path class="cls-3" d="M194.16,65.32a79.47,79.47,0,0,1-10.44,77.83,22,22,0,0,1,7.57,9,91.35,91.35,0,0,0,12.63-93A34,34,0,0,1,194.16,65.32Z"/><path class="cls-3" d="M146.43,170.36A79.52,79.52,0,0,1,120,175h0a79.26,79.26,0,0,1-46.84-15.26,22.25,22.25,0,0,1-6,7.5h0a19.25,19.25,0,0,1-1.58,1.15,91.44,91.44,0,0,0,87.51,11.76A33.93,33.93,0,0,1,146.43,170.36Z"/><path class="cls-3" d="M78.61,17.87a22.57,22.57,0,1,1-31.93,0,22.6,22.6,0,0,1,31.93,0Z"/><path class="cls-4" d="M70.45,41.65a11.06,11.06,0,1,0-15.63,0h0a11.05,11.05,0,0,0,15.63,0"/><path class="cls-3" d="M165.23,17.86a22.57,22.57,0,1,1,0,31.92,22.6,22.6,0,0,1,0-31.92Z"/><path class="cls-4" d="M189,26a11.06,11.06,0,1,0,0,15.63h0A11.05,11.05,0,0,0,189,26"/><path class="cls-3" d="M161.39,172.16a22.57,22.57,0,1,1,31.92,0,22.6,22.6,0,0,1-31.92,0Z"/><path class="cls-4" d="M169.54,148.39a11.06,11.06,0,1,0,15.64,0h0a11.06,11.06,0,0,0-15.64,0"/><path class="cls-3" d="M74.76,172.17a22.57,22.57,0,1,1,0-31.92,22.6,22.6,0,0,1,0,31.92Z"/><path class="cls-4" d="M51,164a11.06,11.06,0,1,0,0-15.64h0A11.08,11.08,0,0,0,51,164"/><polygon class="cls-4" points="108.52 83.54 120 117.97 131.47 83.54 108.52 83.54"/><path class="cls-5" d="M149.73,55.27h0C124.26,52.46,120,41.49,120,41.49s-5.74,14.43-42.38,14.43v59.23c0,7.16,4,13.87,9.49,19.73h0C99.6,148.17,120,157.11,120,157.11s42.38-18.56,42.38-42V55.92A113.58,113.58,0,0,1,149.73,55.27Z"/><path class="cls-4" d="M136.8,98.05h-2.46V89.84a15.5,15.5,0,0,0-3.86-10.29h0l-.26-.31a13.86,13.86,0,0,0-20.44,0,15.49,15.49,0,0,0-4.13,10.6v8.21h-2.46a1.85,1.85,0,0,0-1.85,1.85v16.69h0v5a1.85,1.85,0,0,0,1.85,1.86H136.8a1.86,1.86,0,0,0,1.86-1.86V99.91A1.86,1.86,0,0,0,136.8,98.05Zm-9.27,0H112.47V89.84a8.66,8.66,0,0,1,2.28-5.94,7,7,0,0,1,10.49,0,7.33,7.33,0,0,1,.9,1.16h0a8.83,8.83,0,0,1,1.39,4.78Z"/></svg>