<svg id="Layer_2" data-name="Layer 2" xmlns="http://www.w3.org/2000/svg" viewBox="0 0 240 190"><defs><style>.cls-1{fill:#e4e4e4;}.cls-2,.cls-4{fill:#fff;}.cls-2{opacity:0.5;isolation:isolate;}.cls-3{fill:#f40;}.cls-5{fill:#54565a;}</style></defs><title>ptcinnofisacorearchitectsecurityitpeachtreecity</title><path class="cls-1" d="M180.57,155.6A85.1,85.1,0,0,1,120,180.69h0A85.67,85.67,0,0,1,59.42,34.44,85.67,85.67,0,1,1,180.57,155.6Z"/><path class="cls-2" d="M59.42,155.6A85.67,85.67,0,0,1,180.58,34.44Z"/><path class="cls-3" d="M45.15,125a76.26,76.26,0,0,1,10-74.7,21.4,21.4,0,0,1-4.47-4.11,21.72,21.72,0,0,1-2.8-4.5A87.66,87.66,0,0,0,35.79,130.9,32.43,32.43,0,0,1,45.15,125Z"/><path class="cls-3" d="M86.87,9.93a34.12,34.12,0,0,1,6.68,9.74,79.16,79.16,0,0,1,73.29,10.67,22.47,22.47,0,0,1,5.95-7.5s0,0,0,0c.54-.43,1.09-.83,1.65-1.21A91.42,91.42,0,0,0,86.87,9.93Z"/><path class="cls-3" d="M194.16,65.32a79.47,79.47,0,0,1-10.44,77.83,22,22,0,0,1,7.57,9,91.35,91.35,0,0,0,12.63-93A34,34,0,0,1,194.16,65.32Z"/><path class="cls-3" d="M146.43,170.36A79.52,79.52,0,0,1,120,175h0a79.26,79.26,0,0,1-46.84-15.26,22.25,22.25,0,0,1-6,7.5h0a19.25,19.25,0,0,1-1.58,1.15,91.44,91.44,0,0,0,87.51,11.76A33.93,33.93,0,0,1,146.43,170.36Z"/><path class="cls-3" d="M78.61,17.87a22.57,22.57,0,1,1-31.93,0,22.6,22.6,0,0,1,31.93,0Z"/><path class="cls-4" d="M70.45,41.65a11.06,11.06,0,1,0-15.63,0h0a11.05,11.05,0,0,0,15.63,0"/><path class="cls-3" d="M165.23,17.86a22.57,22.57,0,1,1,0,31.92,22.6,22.6,0,0,1,0-31.92Z"/><path class="cls-4" d="M189,26a11.06,11.06,0,1,0,0,15.63h0A11.05,11.05,0,0,0,189,26"/><path class="cls-3" d="M161.39,172.16a22.57,22.57,0,1,1,31.92,0,22.6,22.6,0,0,1-31.92,0Z"/><path class="cls-4" d="M169.54,148.39a11.06,11.06,0,1,0,15.64,0h0a11.06,11.06,0,0,0-15.64,0"/><path class="cls-3" d="M74.76,172.17a22.57,22.57,0,1,1,0-31.92,22.6,22.6,0,0,1,0,31.92Z"/><path class="cls-4" d="M51,164a11.06,11.06,0,1,0,0-15.64h0A11.08,11.08,0,0,0,51,164"/><polygon class="cls-4" points="108.52 83.54 120 117.97 131.47 83.54 108.52 83.54"/><path class="cls-5" d="M157.29,103.85l-6.06-6.06L124.8,124.22l-.52-.2V83.69h-8.57V124c-.17.07-.35.13-.52.21L96.6,105.63a11.73,11.73,0,0,0,1-4.81,11.9,11.9,0,1,0-11.91,11.9h0a11.67,11.67,0,0,0,4.8-1l18.59,18.59a11.71,11.71,0,0,0-1,4.81A11.91,11.91,0,0,0,120,147h0a11.85,11.85,0,0,0,10.86-16.71Z"/><path class="cls-5" d="M154.26,112.72a11.9,11.9,0,1,1,11.9-11.9,11.91,11.91,0,0,1-11.9,11.9Z"/><path class="cls-4" d="M134.2,63.42a14,14,0,1,1-14-14,14,14,0,0,1,14,14"/><path class="cls-5" d="M120.2,40.86a22.56,22.56,0,1,0,22.56,22.56A22.55,22.55,0,0,0,120.2,40.86Zm0,36.55a14,14,0,0,1-14-14h0a14,14,0,1,1,14,14Z"/><path class="cls-5" d="M94.36,98.25l19.31-19.31a16.81,16.81,0,0,1-6.82-5.29L88.3,92.2A9,9,0,0,1,94.36,98.25Zm51.38,0-19.3-19.31a16.94,16.94,0,0,0,6.82-5.29L151.8,92.2A9,9,0,0,0,145.74,98.25Z"/></svg>